/* XPM */
static char *_688ccaf42fe48f5fb1c619edf2b3c8cg4M58LaXgsuxm2mk[] = {
/* columns rows colors chars-per-pixel */
"64 64 212 2 ",
"   c #222325",
".  c #282A2C",
"X  c #2D2E31",
"o  c #2E3034",
"O  c #323436",
"+  c #34363A",
"@  c #36393D",
"#  c #3A3B3D",
"$  c #383A37",
"%  c #3E403E",
"&  c #40423F",
"*  c #373A43",
"=  c #3B3E42",
"-  c #383947",
";  c #3E4145",
":  c #3F4249",
">  c #3D4C54",
",  c #424345",
"<  c #43454A",
"1  c #46494D",
"2  c #494B4D",
"3  c #464945",
"4  c #464B52",
"5  c #4B4D52",
"6  c #464A57",
"7  c #4E5155",
"8  c #4E535A",
"9  c #515355",
"0  c #555957",
"q  c #52555A",
"w  c #55595D",
"e  c #595B5D",
"r  c #595A5A",
"t  c #635F5E",
"y  c #5C615D",
"u  c #63635D",
"i  c #495868",
"p  c #525662",
"a  c #565B62",
"s  c #5A5D62",
"d  c #5B5E6A",
"f  c #545C6E",
"g  c #525E76",
"h  c #5D6165",
"j  c #5D636A",
"k  c #546472",
"l  c #5D6C79",
"z  c #5B6575",
"x  c #616464",
"c  c #656965",
"v  c #62656A",
"b  c #656A6D",
"n  c #6A6C6D",
"m  c #6A6762",
"M  c #6D726C",
"N  c #646771",
"B  c #656B72",
"V  c #696E73",
"C  c #656C7B",
"Z  c #6B6E7A",
"A  c #646778",
"S  c #6D7175",
"D  c #67707A",
"F  c #6D737A",
"G  c #6F797E",
"H  c #677075",
"J  c #727575",
"K  c #757976",
"L  c #72757A",
"P  c #75797D",
"I  c #797C7B",
"U  c #7B807C",
"Y  c #556682",
"T  c #5E6984",
"R  c #636B85",
"E  c #6B7483",
"W  c #6C7983",
"Q  c #687688",
"!  c #737682",
"~  c #757B83",
"^  c #7A7E83",
"/  c #747B8B",
"(  c #7A7E8A",
")  c #6F7994",
"_  c #778187",
"`  c #7C8285",
"'  c #7D838A",
"]  c #7F8A8D",
"[  c #74828B",
"{  c #7D8492",
"}  c #7D8992",
"|  c #7A8899",
" . c #748297",
".. c #738CA0",
"X. c #838586",
"o. c #868985",
"O. c #82868B",
"+. c #848A8D",
"@. c #898B8C",
"#. c #91918F",
"$. c #838693",
"%. c #858B93",
"&. c #8A8E93",
"*. c #848D9A",
"=. c #8A8E9A",
"-. c #8C9195",
";. c #86929A",
":. c #8D939B",
">. c #929595",
",. c #92969A",
"<. c #949A9D",
"1. c #9A9D9D",
"2. c #929894",
"3. c #9DA19B",
"4. c #A0A29F",
"5. c #8A8FA2",
"6. c #8C93A2",
"7. c #8D9AA4",
"8. c #8A94AF",
"9. c #9296A2",
"0. c #959CA3",
"q. c #999EA3",
"w. c #959DAB",
"e. c #9B9EAA",
"r. c #9596AA",
"t. c #989FB2",
"y. c #A09FAD",
"u. c #97A1A3",
"i. c #9CA2A5",
"p. c #96A3AD",
"a. c #9DA4AA",
"s. c #9EA9AB",
"d. c #9CA5B1",
"f. c #9BA9B4",
"g. c #A1A4A5",
"h. c #A1A6AA",
"j. c #A4AAAD",
"k. c #A9ACAE",
"l. c #A6A9A5",
"z. c #A7B0AF",
"x. c #A3A5B2",
"c. c #A4ABB3",
"v. c #AAAEB2",
"b. c #A4AEBB",
"n. c #ABAFBA",
"m. c #ACB2B5",
"M. c #A4B1BB",
"N. c #ADB4B9",
"B. c #AFB8BD",
"V. c #AAB5B6",
"C. c #B2B4B6",
"Z. c #B5BAB6",
"A. c #B1B6BA",
"S. c #B4BABD",
"D. c #B8BCBC",
"F. c #B9B8B4",
"G. c #B0ACA9",
"H. c #BDC0BE",
"J. c #C5C6BD",
"K. c #AEB7C7",
"L. c #B2B7C2",
"P. c #B4BCC2",
"I. c #BABEC2",
"U. c #B5BFC8",
"Y. c #BCC2C5",
"T. c #BDC5CA",
"R. c #BFC8CD",
"E. c #B9C2D1",
"W. c #C3C5C4",
"Q. c #C2C6CA",
"!. c #C4CACD",
"~. c #CBCCCC",
"^. c #C8C9C4",
"/. c #D0CCCB",
"(. c #D3D2CE",
"). c #D2D4C7",
"_. c #C4CCD2",
"`. c #CBCED1",
"'. c #C5CEDD",
"]. c #CCD2D4",
"[. c #CDD4D8",
"{. c #C7D1D3",
"}. c #D3D5D4",
"|. c #D5D8D5",
" X c #D2D6D9",
".X c #D4DADC",
"XX c #DBDCDC",
"oX c #D8D9D5",
"OX c #CAD0C6",
"+X c #E1DEDC",
"@X c #DCE1DB",
"#X c #E4E2DF",
"$X c #D5DDE1",
"%X c #DBDEE2",
"&X c #D5DDE8",
"*X c #CCD6E2",
"=X c #DDE3E5",
"-X c #DCE5E9",
";X c #E3E4E5",
":X c #E3E5EA",
">X c #E6EBEC",
",X c #EAECEC",
"<X c #E9E7E3",
"1X c #F1EBE8",
"2X c #ECF0EF",
"3X c #F2F3ED",
"4X c #ECEEF2",
"5X c #E2E3F7",
"6X c #EEF2F4",
"7X c #F1F3F3",
"8X c #F3F6F9",
"9X c #F9F7F7",
/* pixels */
"7 2 5 9 8 9 s w d s q A j V ! G ~ $.` 6.=.+.i.i.i.a.<.u.;.P P M 7 S P ] 0.<.u.<.-.u.' ^ %.! D L N Z b a h 8 8 a 8 9 w 5 q 2 5 1 ",
"j 9 * F 3 5 _ # B L = } B w p.d ` M.q c.s.B {.a.+.{.&.s.W.j -.+.8 <.b <.Y.G A.h._ _.` P M.j ^ :.1 ] A 1 ' 2 9 ^ + b M o F 4 % j ",
"O 8 J o H b # $.q 7 0.; ! r.$ a.;.e '._ L *Xn a.R.H Y.V.P Q.S b X.0 N.-.-. XP <.T.e v.p.7 V./ w f.< j *.O ( B $ ' 7 : ' o w B . ",
"q q 7 h 9 s j w v B w ! F B { V +.i._ ;.9.<.v.,.:.z.<.j.A.+.<.o.b O.-.h.V.<.h.u.+.e.-.+.$.F ' *.s F N h C a 0 A 8 w j 5 e q 7 8 ",
"h 7 ; P 2 q ^ ; F F 5 =.B a t.w ' L.b 0.a.I T.&.' !.&.s.{.] a.<.b k.] B.Y.P Y.<.b P.O.U d.j +.9.4 / B 4 ' 8 w _ ; j v = V q : e ",
"O 4 S $ F B + +.q 8 a., ! f.3 b.:.7 E.P ^ &Xn 9.T.b {.z.J @X-.` :.b |.u._ =XP <.P.r N.f.2 v.C q n.7 b 6.O ( D O ' 5 1 O.@ w B . ",
"w 5 1 D 9 w D 2 F ~ s *.Z j d.J ' 9.S a.e.L V.<.-.T.u.s.H.+.V.u.b V.-.l.m.:.S.u.X.x.` P v.b P $.h ] ! 7 ' w d P 5 a v ; V 0 % w ",
"w 8 5 n 7 s S 5 B ~ a =.V b r.F ^ e.L j.i.n v.<.-.Y.<.z.!.+.k.0.b z.+.z.Q.%.N.i.' j.L P c.H ' _ a O.V 8 ^ d h L 1 h v 4 v w 2 8 ",
"O 7 ( X H F O =.a 9 n.5 ( x.; b.:.a _.` P T.d i.{.b W.!.+.%X-.' 3.S [.i.i.=XP <.!.w 0.0.q Y.D w c.5 b 9.+ $.G + $.2 1 ' + h V . ",
"h r # F 9 7 ~ < P ( 5 7.J N b.V ' c.v h.i.V A.<.%.!.%.j.=X>.z.m.P A.-.Y.]._ V.s.L N._ J c.h ' -.9 ;./ 5 ;.0 e $.: j V ; B 7 , h ",
"8 7 1 h w q n s J L N ' ! ! =.Z %.e.` -.-.+.i.>.<.m.u.V.T.S.B.A.>.m.m.Y.S.i.j.l.O.<.O.` &.P O.' N F P N L N j F a a w 8 s 4 5 5 ",
"; 4 S + H V # ;.d q d.5 *.b.1 s.:.h _.P P _.n p.].P [.Y.' ,XH.l.!.1.6Xi.-.-X` a.T.h s.0.5 m.~ v c.4 L w.: ( W + ] 9 1 ~ @ 0 j o ",
"F w @ ~ 3 w +.: ~ %.< d.` v K.s ` P.v 0.q.h T.<.X.=X' l.@X-.`.XX@.;X<.Y.!.P Q.h.M T.P S V.a @.9.1 :.E 9 w.w w =.= F n @ F 7 # S ",
"q 2 w w d v j V V B ^ ~ ^ ~ _ +.%.&.-.:.-.<.<.<.i.a.m.m.z.V.`.!.k.!.S.v.k.m.h.0.<.;.-.&.] +.` ~ ^ L F V V V h v v d s s w q 2 1 ",
"@ 8 b , F F < *.h a s.w ( p.u c.<.e P.` X._.M i.Q.S !.Y.+.=XY.Z.!.g.,Xk.<.=X_ <.P.x c.a.h h.F h v.s V %.< $.! # _ 9 q ' , q j X ",
"v w + ` 2 s 0.= L O.5 x.S d _.b ' v.8 x.V.h {.<.' :X+.h.>X-.`.:X2.;X-.^. XS ].j.S {.P P Y.p P q.4 a.( 1 7.w w *.+ L L @ F 7 # v ",
"1 7 s 7 x j a F j V %.F ~ -.~ ,.&.P q.&.@.c.+.i.B.<.V.S.m.].H.Z.z.j.].S.m.S.<.a.m._ <.,.P :.P J &.V P ^ a P H q B p w x 5 9 p ; ",
"< 5 B , V V 5 ` v v 0.h O.x.s q.=.V m.' O.Y.^ k.!._ W.A.<.XXz.g.k.2.oXA.i.[.@.i.W.P h.i.b q.^ v e.h J %.8 P ~ < ^ 7 5 J : a d + ",
"V h # O.7 7 %.= ^ r.; e.^ s _.b ^ Y.4 j.V.h  Xu._ >X_ k.8X-.!.`.K .X+.].=XS !.V.S [.X.P Y.5 &.0.< s.^ 4 r.2 h ,.+ B B @ P 5 = J ",
"5 a B 1 B V 8 +.S s %.b ^ p.b ,.<.S j.` +.Y.+.i.S.+.Y.S.<. XH.i.l.u. Xm.i.].:.i.A.^ j.u.b 0.P S 0.w ^ $.q F j q ^ p q S 4 w v ; ",
"9 q b 1 b S a +.F h _ H X.:.b ;.0.P v.O.+.A.%.j.A.-.Y.Y.i.[.!.T.D.S.XXk.j._.<.i.S.+.h.q.J q.^ ^ :.x P ` h V d w ^ j w N 4 q h < ",
"L s # ( 4 8 0.1 L %.2 v.^ r L.v +.Y.7 v.N.h  Xs.' 6X] z.2X] ~.>X-.:X-.!.XXS $Xm.^ .X_ P Q.q ;.l.2 r.S 5 i.p y ( - L V + J 5 = Z ",
"4 9 V ; S H 7 %.v h i.h F 0.h a.,.j m.X.+.!.G z.~.~ ].S.2.:XY.Z._.l.:Xk.u.$X%.j.`.S k.h.H h.P b h.h S O.1 ( N < ^ 8 9 J = e v + ",
"a q h s x B s V B A O.P P O.` -.-.P <.0.q.V.:.i.A.i.V.A.m.Q.H.T.S.A.].S.k.D.u.v.m.-.i.h.+.<.P P o.L ~ b b F n a j a w d 9 w q 4 ",
"L a = O.q q O.1 P $.7 j.P w I.S ^ m.h m.I.V [.<.+.,X_ z.,X:.OX>Xi.;X:.{..XH ].H.L [.+.-.Q.j +.<.7 a.J 2 1.r s ^ # b b @ J 7 : V ",
"< w ^ = Z A < ( s r q.a P q.s q.;.x Q.O.O. XP m. X_ |.S.O.,XP.m.(.7.6Xk.;.2X+.z..XS A.j.b I.P b h.q P +.1 ( N : J 1 6 J = d v + ",
"v s a v s v d v V V n ^ O.` O.O.X.<.-.-.<.i.k.k.j.A.S.S.A.V.Q.{.N.W.S.V.A.N.P.k.h.v.q.<.-.+.&.X.L ~ L S Z t h r p w 9 9 s q 9 a ",
"^ v < ^ r q P 5 b P 1 -.O.b v.V ' S.j h.v.P [.a.&.;X:.A..X] W.-X0.@X%.S.@X+.[.m.^  X+.&.S.j -.u.9 <.! s -.5 5 Z < s a ; N 9 1 S ",
"; s X.* V J : $.x 1 =.q ` v.w q.i.h T.' ' |.S m.[.H oX!.' 2XV.h.|.} 3Xa.7.6XO.h..Xb A.v.h S.P b c.9 ` ,.: L a ; ! 5 1 P + h n + ",
"V w 7 V w a ^ r v B s O.O.^ &.^ -.a.&.j.i.-.A.g.k.Y.a.m.{.k.P.[.z.T.h.T.Q.q.Y.m.q.S.<.-.j.+.<.,.V ` J b L r q h 2 v h 1 h 5 7 a ",
"n v < V 7 s O.5 j P w &.^ v h.P -.m.P k.v.^ Y.h.<.@X:.k. Xp.W..Xs.(.a.T.~._ ].D.&.Y.&.-.m.P -.0.v =.V s ( r s h ; h v ; v 1 1 v ",
"= q ! = n L ; ( w 7 q.9 P h.w C.q.h !.O.+.>XV S.=X_ .XA._ 7Xz.s.|.+.8Xk._ 8X+.m.=Xb I.S.h Y.P b S.w ~ +.= I N # Z 1 5 Z + q N o ",
"N s 5 S q q ! 5 h ^ a %.P V v.( +.v.^ N.Y.' Q.h.q. X<.m.[.u.R..Xl.{.i.T.Q.&.].S.-.Y.-.<.Y.P ;.,.n ,.P s ^ w a v ; h a 1 h 7 1 s ",
"t w 5 n s t Z r x Z x O.! ^ 1.O.+.h.+.v.k.,.H.h.i.|.<.V.!.i.T.{.s.~.c.S.^.:.Y.Z.:.D.<.e.z.+.&.&.S O.P j ^ h q a 1 e s 1 s 5 2 q ",
": 5 Z = N S , ^ d w %.N ` V.p h.q.V  X-.+.:X^ A..XS ;XS.~ 6XV.z.|.;.8Xh.$.9X' l.=XV I.z.N !.o.B v.w P -.5 L h , S < 5 V * 9 q O ",
"v q ; S q 7 ^ 5 Z ^ 5 @.$.V a.' %.Q.` V.m.^ .Xh.-.#X;.m.=X} `.=Xp.XX-.L. X_ _.A.^ .X,.@.S.S h.q.j :.H v O.5 q S : v w = x 2 = a ",
"w q 5 d h w v h b b V P ( O.O.O.,.j.:.q.h.j.S.j.g.A.g.N.Y.l.P.!.N.A.v.V.D.i.V.h.<.m.h.<.0.+.<.@.P P ^ B B h w d q 8 0 7 9 4 5 2 ",
"= 1 J = v S : ^ N q ,.d J h.A i.i.L `.+.-.>X^ j.~.B XXS._ 6Xp.s.oX[ >Xh.%.6X^ <.].B Y.m.b Z.' F x.q ^ X.< ^ s ; S 1 4 b = 7 q o ",
"s e + S q q ` 4 v ( 9 &.( a j.F %.Q.L S.I.S  X0.+.<X[ A.=XW !..X;.#X' B.+XH ~.S.F ^.+.%.Y.S r.1.7 9.B 8 +.q s S # v h @ j 1 ; q ",
"< 1 q 9 w h a x b b J ! V ^ %.=.&.+.j.v.h.j.i.l.C.h.C.V.j.m.Y.B.v.P.L.j.j.S.a.l.h.<.q.<.<.a.P P ' P S h v n w w w 7 7 w 2 2 < # ",
"# ; h ; c b : S N 9 O.v B ,.V h.=.v W.q.:.|.^ m.`.~ oXN.' ;Xb.z.~.;.;Xg.' :X@.i.].H m.v.P A.J j q.d P S 1 F e 2 V < 5 v # 7 5 . ",
"w 8 + J 8 1 _ 3 n ( 1 ( ! d S.! F B.z S.T.W XX<.` 9X} v.=Xl ~.-X$.1XG B.+Xb .XC.s XXO.%.Q.d %.+.9 e.J q ( 1 q P + s w = B ; # w ",
"3 < y : s h 5 b h a ! N V =.L O.-.*.l.0.,.!.0.l.S.,.Q.S.i.Q.N.Y.D.a.!.l.0.].1.h.A.O.m.u.( q.O.P O.B L V w n s 5 h 7 4 w ; 9 2 = ",
": : h : 0 h 2 L b s P N I <.F +.q.' L.:.<. X:.v.W.O.[.Y.2.$Xg.j.W.*.|.j.e.XX&.q.D.^ S.h.F j.^ / O.d ^ ( w N h 9 S 1 5 e = 2 5 O ",
"s w O v < ; P 1 J O.1 &.%.j l.v ^ Q.Z k.Y./ ;Xq.O.9X$.A.4XF  X[.~ 3X~ L.:XB .XD.b oX%.$.I.s w.<.5 @.F d >.1 d P ; h 0 o j # ; e ",
"# 7 w = 2 0 4 L x q P x ^ ,.j =.q.$.A.=.0.[.q.B.~.{ /.P.0.XX0.j.Y.O.[.C.<..X&.g.!.O.V.h.F e.' F :.p J O.q V s 1 H 7 < 7 O 2 e + ",
"< 7 s ; < 9 8 v s e L B P O.Z =.0.` h.e.q.I.f.S.Y.e.Q.A.9._.x.V.D.0.W.j.p.W.0.k.Y.0.x.q.' <.L ( +.B N L s V e 8 h q 2 2 @ 5 7 = ",
"e 9 O r , ; L < s P 5 &.! 1 h.F O.v.Z I.U.j >XB.,.7X~ V.;XD .XY.H ,X_ m.=Xv [.A.~ :X` F Q.v ' >.a -.d 2 -.9 s S * x 8 o w # = e ",
"@ = r * 1 e < b h 0 &.w h O.w <.,.Z Y.6.*.`./ L..X_ |.m.^ :Xw.a._.! $Xh.^ =X+.h.].Z a.1.Z x.J Z >.w n n < ` b 5 V < 7 0 o 1 2 X ",
", < < & 2 q 8 e h s n b h S ~ I P X.:.<.0.c.e.V.P.C.m.n.l.B.v.z.j.h.S.j.i.v.a.v.c.-.q.=.O.O.! V Z S v s w b d e w 0 7 2 , ; , + ",
"< , X q < , V 2 j P , J d 9 1.b N y.f <.V./ }.0.=.,X| j.[.l [.Y.H :XP x.(.z [.N.F W.{ { g.9 / ` 1 O.v 2 P < d S ; j 8 # r O + < ",
"O X 2 O 9 a + V s 7 ` 5 n %.1 P O.w l.E ` XXQ v.|.Q (.n.F 3X| 0.(.k :Xi.E @X! i.Q.z m.q.8 ,.u p O.: n L = J u 4 P < 2 h + ; =   ",
"= - # , , 5 r 7 x V e v x x N a P ( M <.c.$.A.a.a.V.x.j.N.:.z.c.-.m.9.a.z.0.s.i.=.h.+.+.9.b b L w q x s v w v b r q 9 < < % O O ",
", # X 5 < , h 5 v J 5 J x 6 S 9 S ,.8 u.n.Z Q.d.{ /.| x.{.l ^.L.G oXW d.`.D A.0.W Y.! ~ h.q F P 2 x 7 4 K 9 v P 2 d 9 = 5 O $ ; ",
"X X 2 X 9 r * J j 3 O.7 y c - K ^ < F.E b ~.Q x.!.i oXx.C 7XQ -.(.i %X3.T <XB $.W.k c.&.4 i.x 8 X.- 5 n = P c 4 +.5 5 h X < #   ",
"# 2 $ < & 2 v 9 0 v 9 V x , x w x ^ B -.$./ k.w.:.S.! h.N.~ S.f.~ I.} w.F.E a.9.*.i.` F +.b F c 5 x 2 2 J s a x 5 b r = 2 # % , ",
"3 < + 3 = < t 2 7 v 5 K s 2 n 9 w X.B @.&.F j.6.:.Y.E a.B./ Z.f.F J.[ t.Z.R x.a./ h.L H @.v P x < m 5 2 I r s m 1 x e = 2 # ; 3 ",
"+ O w O 3 w * v q 3 ^ q 9 K * I S 5 G.R n F.z >.!.g oXp.l 3XQ &.`.> 5X3.k ;X~ =.Z.f r.X.> 3.m 6 @.- t n - ( t , S 1 2 x X 2 7   ",
"2 < O 2 < 2 t ; r b 3 x h 7 J a S 1.p o.,.C 1.5.*.}. .i.T.l D.c.W J.W t.W.R S.x.E g.B F >.p ! o.6 n s 9 n 9 s J ; x x = 9 & # 2 ",
"< < , ; < 1 r 5 r s 3 w s 9 V h X.+.V ` ( ! >.=.e.V.5.p.z. .j.b.+.V.+.7.j.*.c.a.' %.L ~ I v L O.t n r 9 t < s v 7 2 0 2 2 , 2 , ",
"@ , r O 2 t O t 5 % N = 9 K : @.+.8 4.A j l.R ,.Y.z ^.f.f #X..<.).Y .X#.Y XXV 6.J.f =.I 6 >.t d y.5 t n + m r * J 5 2 m . 2 r O ",
"3 < X r # & v # 9 v % b 9 ; X.h s >.7 O.O.a C.:./ ~.) r.!.g Z.E.! (.l 8.W.B K.q.A S.b v &.9 ! J , X.h , I , r n $ v s O t = # 5 ",
"% = = & & 2 2 9 2 9 r r 7 0 v v s n ! K S ( @.:.6.e.7.a.p.7.x.b.0.p.q.7.e.7.w.7.=.o.( C M J Z t t v r 9 9 h r 9 r w 9 < < & , % ",
"X $ < X 2 9 # m 9 $ L 3 3 S ; J n 5 1.V v h.d ,.I.T W.K.E XX) <.OXl [.0.)  X/ 5.D.p &.U 6 >.t 5 ^ < t v # L t # J 5 5 m X , 2   "
};
