/* XPM */
static char *_6737b8c034d48e4bb23a45ec7ffae00dTXojfmVz1HV9dGJ[] = {
/* columns rows colors chars-per-pixel */
"10 10 3 1 ",
"  c #123456",
"X c #0000FF",
"O c #FF0000",
/* pixels */
"    XX    ",
"  XXXXXX  ",
" XX XX XX ",
" X      X ",
"XXX OO XXX",
"XXX OO XXX",
" X      X ",
" XX XX XX ",
"  XXXXXX  ",
"    XX    ",
};
