/* XPM */
static char *freeimage[] = {
/* width height num_colors chars_per_pixel */
"32 32 2 1",
/* colors */
"  c #00FF00",
". c #006400",
/* pixels */
"................................",
".                              .",
".                              .",
".                              .",
".                              .",
".                              .",
".                              .",
".                              .",
".                              .",
".                              .",
".                              .",
".                              .",
".                              .",
".                              .",
".                              .",
".                              .",
".                              .",
".                              .",
".                              .",
".                              .",
".                              .",
".                              .",
".                              .",
".                              .",
".                              .",
".                              .",
".                              .",
".                              .",
".                              .",
".                              .",
".                              .",
".                              .",
"................................"
};
