/* XPM */
static char *freeimage[] = {
/* width height num_colors chars_per_pixel */
"10 10 2 1",
/* colors */
"  c #808080",
". c #000000",
/* pixels */
"..........",
".        .",
".        .",
".        .",
".        .",
".        .",
".        .",
".        .",
".        .",
".........."
};
